<svg id="svg" version="1.1" xmlns="http://www.w3.org/2000/svg" xmlns:xlink="http://www.w3.org/1999/xlink" width="400" height="396.52173913043475" viewBox="0, 0, 400,396.52173913043475"><g id="svgg"><path id="path0" d="M257.474 126.549 C 257.401 126.745,256.002 128.320,254.365 130.047 C 252.728 131.775,250.703 133.979,249.865 134.947 C 249.027 135.915,247.152 137.962,245.698 139.497 C 244.245 141.032,242.267 143.175,241.304 144.259 C 240.340 145.343,238.376 147.487,236.939 149.023 C 235.501 150.560,232.629 153.683,230.556 155.963 C 228.482 158.243,226.429 160.481,225.992 160.937 C 225.556 161.392,224.428 162.630,223.487 163.689 C 222.545 164.748,220.134 167.395,218.129 169.572 C 216.125 171.748,214.306 173.728,214.087 173.972 C 213.267 174.885,205.349 183.540,205.159 183.730 C 205.050 183.839,203.086 185.982,200.796 188.492 C 198.505 191.002,195.636 194.127,194.419 195.437 C 193.202 196.746,191.237 198.889,190.052 200.198 C 188.867 201.508,187.808 202.669,187.698 202.779 C 187.304 203.177,182.658 208.225,178.968 212.264 C 176.895 214.534,174.691 216.944,174.071 217.620 C 170.894 221.085,169.329 222.619,168.973 222.619 C 168.756 222.619,159.294 213.333,147.948 201.984 C 136.601 190.635,127.179 181.349,127.011 181.349 C 126.564 181.349,102.204 206.318,102.065 206.918 C 102.001 207.197,117.313 222.800,136.093 241.591 L 170.238 275.757 171.131 274.853 C 171.622 274.355,172.895 272.980,173.960 271.796 C 175.025 270.612,176.989 268.471,178.325 267.038 C 179.661 265.606,182.272 262.762,184.127 260.719 C 185.982 258.676,188.125 256.344,188.889 255.538 C 189.653 254.731,191.459 252.753,192.903 251.142 C 194.347 249.532,196.222 247.492,197.070 246.609 C 197.918 245.726,199.312 244.208,200.168 243.236 C 201.546 241.672,204.094 238.883,211.905 230.388 C 213.105 229.083,214.444 227.636,214.881 227.173 C 215.317 226.710,216.445 225.465,217.386 224.406 C 218.328 223.348,220.739 220.700,222.744 218.524 C 224.748 216.347,226.567 214.369,226.786 214.128 C 227.004 213.887,228.879 211.816,230.952 209.525 C 233.026 207.234,234.990 205.091,235.318 204.763 C 235.645 204.435,237.609 202.292,239.683 200.000 C 241.756 197.708,243.720 195.565,244.048 195.238 C 244.375 194.911,246.339 192.768,248.413 190.476 C 250.486 188.185,252.453 186.042,252.784 185.714 C 253.114 185.387,254.900 183.429,256.752 181.364 C 258.604 179.299,260.476 177.234,260.913 176.775 C 261.587 176.066,263.660 173.808,269.475 167.451 C 270.037 166.836,272.002 164.684,273.840 162.669 C 275.678 160.654,278.278 157.827,279.616 156.387 C 285.589 149.962,285.522 151.423,280.073 146.381 C 277.625 144.115,274.459 141.190,273.036 139.881 C 271.614 138.571,270.179 137.230,269.848 136.901 C 269.517 136.571,267.199 134.429,264.698 132.139 C 262.196 129.849,259.733 127.574,259.223 127.083 C 258.238 126.134,257.689 125.966,257.474 126.549 " stroke="none" fill="#fbfbfc" fill-rule="evenodd"></path><path id="path1" d="M188.671 7.908 C 188.463 8.110,187.222 8.319,185.913 8.373 C 184.603 8.426,183.438 8.608,183.323 8.777 C 183.208 8.946,182.360 9.129,181.438 9.183 C 180.516 9.238,179.762 9.426,179.762 9.601 C 179.762 9.777,179.237 9.921,178.595 9.921 C 177.953 9.921,177.317 10.099,177.183 10.317 C 177.048 10.536,176.521 10.714,176.011 10.714 C 175.502 10.714,174.982 10.982,174.856 11.310 C 174.731 11.637,174.187 11.905,173.647 11.905 C 173.107 11.905,172.556 12.083,172.421 12.302 C 172.286 12.520,171.739 12.698,171.207 12.698 C 170.674 12.698,170.238 12.877,170.238 13.095 C 170.238 13.313,169.792 13.492,169.246 13.492 C 168.700 13.492,168.254 13.634,168.254 13.808 C 168.254 13.981,167.455 14.452,166.479 14.855 C 165.503 15.258,164.799 15.741,164.915 15.928 C 165.031 16.116,164.792 16.270,164.384 16.270 C 163.976 16.270,163.282 16.605,162.842 17.015 C 162.402 17.425,161.675 17.876,161.227 18.019 C 160.176 18.352,158.730 19.607,158.730 20.185 C 158.730 20.433,158.373 20.635,157.937 20.635 C 157.500 20.635,157.143 20.813,157.143 21.032 C 157.143 21.250,156.894 21.429,156.590 21.429 C 156.286 21.429,155.933 21.699,155.807 22.030 C 155.680 22.360,155.125 22.802,154.574 23.012 C 154.022 23.222,153.571 23.587,153.571 23.823 C 153.571 24.060,153.393 24.143,153.175 24.008 C 152.956 23.873,152.778 24.041,152.778 24.381 C 152.778 24.722,152.499 25.000,152.159 25.000 C 151.819 25.000,151.651 25.179,151.786 25.397 C 151.921 25.615,151.836 25.794,151.597 25.794 C 151.107 25.794,148.415 28.379,148.409 28.856 C 148.407 29.027,147.879 29.583,147.235 30.091 C 146.591 30.599,145.571 31.796,144.967 32.750 C 144.364 33.704,143.463 34.702,142.967 34.968 C 142.470 35.234,142.063 35.779,142.063 36.178 C 142.063 36.578,141.885 36.905,141.667 36.905 C 141.448 36.905,141.270 37.133,141.270 37.412 C 141.270 37.692,140.913 38.177,140.476 38.492 C 140.040 38.807,139.683 39.382,139.683 39.770 C 139.683 40.158,139.504 40.476,139.286 40.476 C 139.067 40.476,138.889 40.917,138.889 41.456 C 138.889 42.097,138.711 42.367,138.373 42.237 C 138.056 42.116,137.643 42.582,137.306 43.440 C 137.004 44.211,136.611 44.841,136.434 44.841 C 136.256 44.841,136.105 45.154,136.098 45.536 C 136.067 47.265,133.354 48.486,132.793 47.024 C 132.651 46.653,132.045 46.429,131.187 46.429 C 130.429 46.429,129.698 46.250,129.563 46.032 C 129.429 45.813,128.436 45.635,127.358 45.635 C 126.279 45.635,125.397 45.456,125.397 45.238 C 125.397 45.012,124.214 44.841,122.642 44.841 C 121.128 44.841,119.778 44.663,119.643 44.444 C 119.311 43.907,102.118 43.907,101.786 44.444 C 101.651 44.663,100.301 44.841,98.786 44.841 C 97.214 44.841,96.032 45.012,96.032 45.238 C 96.032 45.456,95.239 45.635,94.269 45.635 C 93.300 45.635,92.397 45.813,92.262 46.032 C 92.127 46.250,91.486 46.429,90.837 46.429 C 90.155 46.429,89.561 46.679,89.429 47.024 C 89.288 47.391,88.685 47.619,87.854 47.619 C 87.114 47.619,86.508 47.798,86.508 48.016 C 86.508 48.234,86.072 48.413,85.539 48.413 C 85.007 48.413,84.460 48.591,84.325 48.810 C 84.191 49.028,83.644 49.206,83.112 49.206 C 82.579 49.206,82.143 49.385,82.143 49.603 C 82.143 49.821,81.786 50.000,81.349 50.000 C 80.913 50.000,80.556 50.159,80.556 50.353 C 80.556 50.547,79.955 50.818,79.221 50.956 C 78.487 51.093,77.567 51.560,77.176 51.992 C 76.784 52.424,76.224 52.778,75.931 52.778 C 75.637 52.778,75.397 52.956,75.397 53.175 C 75.397 53.393,74.990 53.571,74.492 53.571 C 73.995 53.571,73.330 53.929,73.016 54.365 C 72.701 54.802,72.215 55.159,71.936 55.159 C 71.301 55.159,69.825 56.598,70.139 56.911 C 70.266 57.039,70.010 57.143,69.569 57.143 C 69.129 57.143,68.208 57.679,67.523 58.333 C 66.838 58.988,66.097 59.524,65.877 59.524 C 65.656 59.524,65.476 59.705,65.476 59.926 C 65.476 60.148,64.926 60.664,64.253 61.073 C 63.441 61.567,63.208 61.888,63.559 62.028 C 63.904 62.166,63.839 62.250,63.369 62.270 C 62.975 62.287,62.765 62.485,62.903 62.708 C 63.041 62.932,62.932 63.066,62.661 63.006 C 62.390 62.946,61.933 63.343,61.645 63.889 C 61.358 64.435,61.120 64.713,61.117 64.509 C 61.114 64.304,60.754 64.519,60.317 64.988 C 59.881 65.456,59.524 65.954,59.524 66.094 C 59.524 66.234,58.988 66.849,58.333 67.460 C 57.679 68.072,57.143 68.769,57.143 69.008 C 57.143 69.248,56.864 69.444,56.524 69.444 C 56.184 69.444,56.009 69.611,56.135 69.816 C 56.261 70.020,55.915 70.637,55.365 71.186 C 54.815 71.736,54.365 72.462,54.365 72.799 C 54.365 73.137,54.187 73.413,53.968 73.413 C 53.750 73.413,53.571 73.681,53.571 74.008 C 53.571 74.335,53.393 74.603,53.175 74.603 C 52.956 74.603,52.778 74.941,52.778 75.354 C 52.778 75.768,52.510 76.208,52.183 76.334 C 51.855 76.460,51.587 76.836,51.587 77.170 C 51.587 77.504,51.398 77.778,51.167 77.778 C 50.936 77.778,50.850 77.945,50.977 78.150 C 51.104 78.355,50.891 78.707,50.504 78.932 C 50.090 79.173,50.012 79.346,50.313 79.353 C 50.644 79.361,50.539 79.672,50.015 80.234 C 49.570 80.711,49.206 81.504,49.206 81.996 C 49.206 82.487,49.028 83.000,48.810 83.135 C 48.591 83.270,48.413 83.827,48.413 84.372 C 48.413 84.918,48.243 85.260,48.036 85.131 C 47.829 85.003,47.541 85.529,47.397 86.298 C 47.252 87.068,46.975 87.698,46.781 87.698 C 46.587 87.698,46.429 88.224,46.429 88.865 C 46.429 89.507,46.250 90.143,46.032 90.278 C 45.813 90.413,45.635 91.227,45.635 92.087 C 45.635 92.947,45.456 93.651,45.238 93.651 C 45.020 93.651,44.841 94.454,44.841 95.437 C 44.841 96.419,44.663 97.222,44.444 97.222 C 44.216 97.222,44.048 98.452,44.048 100.119 C 44.048 101.872,43.856 103.207,43.563 103.501 C 42.871 104.193,42.871 119.118,43.562 119.349 C 43.890 119.458,44.048 120.529,44.048 122.652 C 44.048 124.482,44.213 125.794,44.444 125.794 C 44.663 125.794,44.841 126.687,44.841 127.778 C 44.841 128.869,45.020 129.762,45.238 129.762 C 45.456 129.762,45.635 130.466,45.635 131.326 C 45.635 132.186,45.794 132.988,45.988 133.108 C 46.592 133.481,46.734 136.111,46.150 136.111 C 45.867 136.111,45.635 136.290,45.635 136.508 C 45.635 136.726,45.361 136.905,45.027 136.905 C 44.693 136.905,44.317 137.173,44.191 137.500 C 44.065 137.827,43.658 138.095,43.286 138.095 C 42.914 138.095,42.227 138.452,41.758 138.889 C 41.290 139.325,40.631 139.683,40.294 139.683 C 39.958 139.683,39.683 139.839,39.683 140.031 C 39.683 140.223,39.160 140.597,38.520 140.861 C 37.881 141.126,37.035 141.773,36.640 142.298 C 36.246 142.824,35.608 143.254,35.223 143.254 C 34.839 143.254,34.524 143.433,34.524 143.651 C 34.524 143.869,34.337 144.048,34.109 144.048 C 33.570 144.048,31.746 145.872,31.746 146.411 C 31.746 146.639,31.428 146.825,31.040 146.825 C 30.652 146.825,30.077 147.183,29.762 147.619 C 29.447 148.056,28.961 148.413,28.682 148.413 C 28.403 148.413,28.175 148.569,28.175 148.760 C 28.175 149.307,24.713 152.778,24.167 152.778 C 23.898 152.778,23.789 152.889,23.925 153.025 C 24.213 153.314,22.585 155.570,20.734 157.448 C 20.025 158.168,19.444 159.029,19.444 159.362 C 19.444 159.695,19.266 159.857,19.048 159.722 C 18.829 159.587,18.651 159.755,18.651 160.096 C 18.651 160.436,18.472 160.714,18.254 160.714 C 18.036 160.714,17.857 160.948,17.857 161.235 C 17.857 161.521,17.500 162.138,17.063 162.607 C 16.627 163.076,16.270 163.823,16.270 164.269 C 16.270 164.725,16.009 165.079,15.675 165.079 C 15.347 165.079,15.079 165.347,15.079 165.675 C 15.079 166.002,14.901 166.270,14.683 166.270 C 14.464 166.270,14.286 166.627,14.286 167.063 C 14.286 167.500,14.107 167.857,13.889 167.857 C 13.671 167.857,13.492 168.314,13.492 168.873 C 13.492 169.449,13.320 169.782,13.095 169.643 C 12.877 169.508,12.698 169.765,12.698 170.215 C 12.698 170.664,12.520 171.032,12.302 171.032 C 12.083 171.032,11.905 171.657,11.905 172.421 C 11.905 173.391,11.725 173.810,11.310 173.810 C 10.935 173.810,10.714 174.187,10.714 174.825 C 10.714 175.384,10.580 175.758,10.417 175.657 C 10.253 175.557,10.078 176.036,10.028 176.722 C 9.978 177.409,9.755 178.031,9.532 178.106 C 9.309 178.180,9.127 178.751,9.127 179.375 C 9.127 179.998,8.948 180.619,8.730 180.754 C 8.512 180.889,8.333 181.782,8.333 182.738 C 8.333 183.694,8.155 184.587,7.937 184.722 C 7.718 184.857,7.540 186.123,7.540 187.536 C 7.540 189.385,7.382 190.165,6.978 190.320 C 6.173 190.629,6.191 205.768,6.998 206.934 C 7.296 207.364,7.540 208.648,7.540 209.787 C 7.540 210.926,7.718 211.968,7.937 212.103 C 8.155 212.238,8.333 213.131,8.333 214.087 C 8.333 215.044,8.512 215.937,8.730 216.071 C 8.948 216.206,9.127 216.842,9.127 217.484 C 9.127 218.126,9.306 218.651,9.524 218.651 C 9.742 218.651,9.921 218.921,9.921 219.252 C 9.921 220.475,10.923 223.016,11.406 223.016 C 11.711 223.016,11.905 223.554,11.905 224.405 C 11.905 225.169,12.083 225.794,12.302 225.794 C 12.520 225.794,12.698 226.151,12.698 226.587 C 12.698 227.024,12.877 227.381,13.095 227.381 C 13.313 227.381,13.492 227.738,13.492 228.175 C 13.492 228.611,13.671 228.968,13.889 228.968 C 14.107 228.968,14.286 229.325,14.286 229.762 C 14.286 230.198,14.464 230.556,14.683 230.556 C 14.901 230.556,15.079 230.823,15.079 231.151 C 15.079 231.478,15.347 231.746,15.675 231.746 C 16.009 231.746,16.270 232.101,16.270 232.556 C 16.270 233.002,16.627 233.750,17.063 234.218 C 17.500 234.687,17.857 235.304,17.857 235.591 C 17.857 235.877,18.036 236.111,18.254 236.111 C 18.472 236.111,18.651 236.297,18.651 236.525 C 18.651 236.967,18.877 237.266,21.032 239.669 C 23.214 242.103,24.206 243.305,24.206 243.514 C 24.206 243.927,25.316 244.790,25.548 244.558 C 25.683 244.423,25.794 244.530,25.794 244.797 C 25.794 245.063,26.329 245.852,26.982 246.549 C 27.636 247.247,28.172 247.970,28.173 248.158 C 28.174 248.345,28.442 248.395,28.770 248.269 C 29.122 248.134,29.365 248.265,29.365 248.590 C 29.365 248.893,29.901 249.377,30.556 249.667 C 31.210 249.957,31.746 250.337,31.746 250.512 C 31.746 250.977,33.624 252.778,34.109 252.778 C 34.337 252.778,34.524 252.967,34.524 253.198 C 34.524 253.429,34.682 253.520,34.876 253.401 C 35.069 253.281,35.906 253.805,36.735 254.565 C 37.565 255.324,38.567 256.049,38.963 256.174 C 39.359 256.300,39.683 256.569,39.683 256.773 C 39.683 256.976,39.958 257.143,40.294 257.143 C 40.631 257.143,41.290 257.500,41.758 257.937 C 42.227 258.373,42.933 258.730,43.329 258.730 C 43.724 258.730,44.048 258.998,44.048 259.325 C 44.048 259.656,44.400 259.921,44.841 259.921 C 45.278 259.921,45.635 260.099,45.635 260.317 C 45.635 260.536,45.867 260.714,46.150 260.714 C 46.734 260.714,46.592 263.344,45.988 263.718 C 45.794 263.838,45.635 264.639,45.635 265.500 C 45.635 266.360,45.456 267.063,45.238 267.063 C 45.020 267.063,44.841 267.946,44.841 269.024 C 44.841 270.103,44.663 271.095,44.444 271.230 C 44.226 271.365,44.048 272.789,44.048 274.395 C 44.048 276.257,43.881 277.370,43.587 277.468 C 42.883 277.703,42.801 291.446,43.498 292.366 C 43.831 292.804,44.027 294.248,44.035 296.329 C 44.042 298.239,44.213 299.603,44.444 299.603 C 44.663 299.603,44.841 300.307,44.841 301.167 C 44.841 302.027,45.020 302.841,45.238 302.976 C 45.456 303.111,45.635 303.915,45.635 304.762 C 45.635 305.609,45.813 306.413,46.032 306.548 C 46.250 306.683,46.429 307.318,46.429 307.960 C 46.429 308.602,46.587 309.127,46.781 309.127 C 46.975 309.127,47.252 309.757,47.397 310.527 C 47.541 311.297,47.829 311.822,48.036 311.694 C 48.243 311.566,48.413 312.007,48.413 312.675 C 48.413 313.343,48.591 313.889,48.810 313.889 C 49.028 313.889,49.206 314.246,49.206 314.683 C 49.206 315.119,49.385 315.476,49.603 315.476 C 49.821 315.476,50.000 315.833,50.000 316.270 C 50.000 316.706,50.223 317.066,50.496 317.070 C 50.827 317.074,50.794 317.204,50.397 317.460 C 50.069 317.672,50.004 317.848,50.252 317.851 C 50.500 317.854,51.000 318.482,51.362 319.246 C 51.725 320.010,52.192 320.635,52.400 320.635 C 52.608 320.635,52.778 321.003,52.778 321.452 C 52.778 321.901,52.956 322.159,53.175 322.024 C 53.393 321.889,53.571 322.146,53.571 322.596 C 53.571 323.045,53.750 323.413,53.968 323.413 C 54.187 323.413,54.365 323.689,54.365 324.026 C 54.365 324.363,54.812 325.086,55.357 325.631 C 55.903 326.177,56.349 326.776,56.349 326.962 C 56.349 327.148,57.241 328.212,58.331 329.325 C 59.422 330.438,60.218 331.349,60.101 331.349 C 59.985 331.349,60.120 331.599,60.401 331.904 C 60.682 332.210,60.986 332.389,61.076 332.304 C 61.165 332.218,61.448 332.548,61.703 333.038 C 61.959 333.528,62.390 333.880,62.661 333.820 C 62.932 333.760,63.041 333.893,62.903 334.117 C 62.765 334.341,62.975 334.527,63.369 334.530 C 63.978 334.535,63.997 334.594,63.492 334.921 C 63.165 335.132,63.081 335.308,63.307 335.311 C 63.757 335.318,65.197 336.406,67.385 338.393 C 68.167 339.102,68.957 339.683,69.142 339.683 C 69.328 339.683,69.961 340.129,70.549 340.675 C 71.137 341.220,71.762 341.667,71.937 341.667 C 72.112 341.667,72.639 342.024,73.107 342.460 C 73.576 342.897,74.283 343.254,74.678 343.254 C 75.073 343.254,75.397 343.433,75.397 343.651 C 75.397 343.869,75.735 344.048,76.148 344.048 C 76.561 344.048,77.009 344.334,77.143 344.684 C 77.287 345.059,77.639 345.224,78.000 345.085 C 78.337 344.956,78.511 345.014,78.388 345.214 C 78.171 345.564,79.647 346.272,80.258 346.110 C 80.422 346.067,80.556 346.210,80.556 346.429 C 80.556 346.647,80.913 346.825,81.349 346.825 C 81.786 346.825,82.143 347.004,82.143 347.222 C 82.143 347.440,82.589 347.619,83.135 347.619 C 83.681 347.619,84.127 347.798,84.127 348.016 C 84.127 348.234,84.663 348.413,85.317 348.413 C 85.972 348.413,86.508 348.591,86.508 348.810 C 86.508 349.028,87.133 349.206,87.897 349.206 C 88.867 349.206,89.286 349.386,89.286 349.802 C 89.286 350.215,89.702 350.397,90.651 350.397 C 91.402 350.397,92.127 350.575,92.262 350.794 C 92.397 351.012,93.300 351.190,94.269 351.190 C 95.239 351.190,96.032 351.369,96.032 351.587 C 96.032 351.819,97.354 351.984,99.206 351.984 C 101.058 351.984,102.381 352.149,102.381 352.381 C 102.381 352.633,105.357 352.778,110.516 352.778 C 115.675 352.778,118.651 352.633,118.651 352.381 C 118.651 352.152,119.907 351.984,121.627 351.984 C 123.740 351.984,124.605 351.840,124.609 351.488 C 124.613 351.157,124.744 351.190,125.000 351.587 C 125.256 351.984,125.387 352.017,125.391 351.687 C 125.395 351.364,126.022 351.190,127.183 351.190 C 128.165 351.190,128.968 351.012,128.968 350.794 C 128.968 350.575,129.688 350.397,130.568 350.397 C 131.624 350.397,132.245 350.194,132.396 349.802 C 132.747 348.888,135.317 348.997,135.317 349.925 C 135.317 350.321,135.675 351.027,136.111 351.496 C 136.548 351.964,136.905 352.623,136.905 352.960 C 136.905 353.296,137.071 353.571,137.275 353.571 C 137.478 353.571,137.772 353.973,137.927 354.464 C 138.082 354.955,138.540 355.646,138.946 355.999 C 139.351 356.352,139.683 356.932,139.683 357.289 C 139.683 357.645,139.861 357.937,140.079 357.937 C 140.298 357.937,140.476 358.204,140.476 358.532 C 140.476 358.859,140.655 359.127,140.873 359.127 C 141.091 359.127,141.271 359.350,141.271 359.623 C 141.272 359.896,142.076 360.886,143.057 361.823 C 144.038 362.760,144.841 363.725,144.841 363.966 C 144.841 364.207,145.457 365.002,146.210 365.734 C 146.964 366.465,147.506 367.063,147.416 367.063 C 147.325 367.063,148.310 368.135,149.603 369.444 C 150.897 370.754,152.140 371.825,152.366 371.825 C 152.593 371.825,152.778 372.093,152.778 372.421 C 152.778 372.748,153.019 373.016,153.314 373.016 C 153.609 373.016,154.411 373.552,155.096 374.206 C 155.781 374.861,156.522 375.397,156.742 375.397 C 156.963 375.397,157.143 375.575,157.143 375.794 C 157.143 376.012,157.500 376.190,157.937 376.190 C 158.373 376.190,158.730 376.393,158.730 376.640 C 158.730 377.219,160.176 378.473,161.227 378.807 C 161.675 378.949,162.402 379.401,162.842 379.810 C 163.282 380.220,163.995 380.556,164.427 380.556 C 164.858 380.556,165.089 380.678,164.940 380.827 C 164.649 381.118,168.885 383.333,169.732 383.333 C 170.010 383.333,170.238 383.512,170.238 383.730 C 170.238 383.948,170.585 384.127,171.008 384.127 C 171.432 384.127,171.889 384.306,172.024 384.524 C 172.159 384.742,172.800 384.921,173.449 384.921 C 174.131 384.921,174.724 385.172,174.856 385.516 C 174.982 385.843,175.502 386.111,176.011 386.111 C 176.521 386.111,177.048 386.290,177.183 386.508 C 177.317 386.726,177.953 386.905,178.595 386.905 C 179.237 386.905,179.762 387.083,179.762 387.302 C 179.762 387.520,179.896 387.677,180.060 387.651 C 181.152 387.479,183.740 387.758,183.572 388.031 C 183.459 388.213,184.471 388.403,185.821 388.452 C 187.172 388.500,188.375 388.700,188.496 388.896 C 188.617 389.092,192.690 389.252,197.547 389.253 C 203.096 389.254,206.289 389.113,206.141 388.874 C 206.000 388.646,206.864 388.492,208.286 388.492 C 209.596 388.492,210.778 388.313,210.913 388.095 C 211.048 387.877,211.862 387.698,212.722 387.698 C 213.582 387.698,214.286 387.555,214.286 387.379 C 214.286 387.204,215.045 387.016,215.972 386.962 C 216.900 386.909,217.718 386.695,217.791 386.488 C 217.864 386.281,218.360 386.111,218.895 386.111 C 219.429 386.111,219.969 385.843,220.095 385.516 C 220.220 385.188,220.663 384.921,221.079 384.921 C 221.747 384.921,222.632 384.582,226.587 382.810 C 227.133 382.565,228.294 381.893,229.167 381.316 C 230.040 380.740,231.156 380.142,231.647 379.988 C 232.138 379.834,232.540 379.542,232.540 379.338 C 232.540 379.135,232.897 378.968,233.333 378.968 C 233.770 378.968,234.127 378.828,234.127 378.657 C 234.127 378.486,234.618 378.048,235.218 377.684 C 235.818 377.320,236.935 376.476,237.698 375.808 C 238.462 375.139,239.578 374.373,240.179 374.104 C 240.779 373.836,241.270 373.525,241.270 373.415 C 241.271 373.080,243.128 371.032,243.430 371.032 C 243.586 371.032,244.420 370.273,245.284 369.345 C 248.247 366.166,249.367 365.079,249.683 365.079 C 249.857 365.079,250.000 364.712,250.000 364.262 C 250.000 363.813,250.179 363.556,250.397 363.690 C 250.615 363.825,250.794 363.642,250.794 363.284 C 250.794 362.926,251.419 362.025,252.183 361.283 C 252.946 360.542,253.571 359.753,253.571 359.531 C 253.571 359.309,253.750 359.127,253.968 359.127 C 254.187 359.127,254.365 358.859,254.365 358.532 C 254.365 358.204,254.544 357.937,254.762 357.937 C 254.980 357.937,255.159 357.579,255.159 357.143 C 255.159 356.706,255.304 356.349,255.482 356.349 C 255.660 356.349,256.103 355.724,256.468 354.960 C 256.832 354.196,257.311 353.571,257.533 353.571 C 257.755 353.571,257.937 353.214,257.937 352.778 C 257.937 352.341,258.115 351.984,258.333 351.984 C 258.552 351.984,258.730 351.716,258.730 351.389 C 258.730 351.062,258.909 350.794,259.127 350.794 C 259.345 350.794,259.524 350.437,259.524 350.000 C 259.524 349.005,262.073 348.832,262.445 349.802 C 262.596 350.194,263.217 350.397,264.273 350.397 C 265.153 350.397,265.873 350.575,265.873 350.794 C 265.873 351.012,266.677 351.190,267.659 351.190 C 268.641 351.190,269.444 351.369,269.444 351.587 C 269.444 351.823,270.907 351.984,273.039 351.984 C 275.335 351.984,276.545 352.128,276.389 352.381 C 276.228 352.641,278.953 352.778,284.269 352.778 C 289.015 352.778,292.449 352.622,292.526 352.403 C 292.599 352.196,293.953 351.991,295.536 351.946 C 297.118 351.901,298.413 351.712,298.413 351.527 C 298.413 351.342,299.216 351.190,300.198 351.190 C 301.181 351.190,301.984 351.050,301.984 350.878 C 301.984 350.612,303.101 350.397,305.037 350.291 C 305.298 350.276,305.477 350.071,305.434 349.835 C 305.392 349.598,305.981 349.346,306.743 349.273 C 307.505 349.201,308.229 348.979,308.352 348.779 C 308.475 348.580,309.057 348.377,309.645 348.328 C 310.233 348.279,310.714 348.100,310.714 347.929 C 310.714 347.759,311.161 347.619,311.706 347.619 C 312.252 347.619,312.698 347.440,312.698 347.222 C 312.698 347.004,312.987 346.825,313.339 346.825 C 314.157 346.825,317.857 344.824,317.857 344.381 C 317.857 344.198,318.214 344.048,318.651 344.048 C 319.087 344.048,319.444 343.869,319.444 343.651 C 319.444 343.433,319.800 343.254,320.234 343.254 C 321.050 343.254,321.951 342.647,323.916 340.774 C 324.546 340.174,325.287 339.683,325.563 339.683 C 325.839 339.683,326.915 338.879,327.955 337.897 C 328.994 336.915,330.016 336.111,330.224 336.111 C 330.432 336.111,330.492 335.933,330.357 335.714 C 330.222 335.496,330.480 335.317,330.929 335.317 C 331.378 335.317,331.746 335.178,331.746 335.008 C 331.746 334.838,332.385 334.041,333.167 333.236 C 334.052 332.325,334.477 331.581,334.294 331.264 C 334.132 330.983,334.129 330.870,334.287 331.011 C 334.621 331.309,337.698 328.407,337.698 327.793 C 337.698 327.567,337.877 327.381,338.095 327.381 C 338.313 327.381,338.492 327.024,338.492 326.587 C 338.492 326.151,338.683 325.794,338.917 325.794 C 339.540 325.794,340.250 324.975,340.895 323.512 C 341.208 322.803,341.599 322.222,341.764 322.222 C 341.929 322.222,342.063 321.865,342.063 321.429 C 342.063 320.992,342.242 320.635,342.460 320.635 C 342.679 320.635,342.857 320.267,342.857 319.818 C 342.857 319.368,343.023 319.103,343.225 319.228 C 343.428 319.354,343.708 319.096,343.847 318.657 C 343.987 318.217,344.297 317.857,344.537 317.857 C 344.777 317.857,344.854 317.737,344.708 317.591 C 344.561 317.445,344.681 316.954,344.973 316.500 C 345.265 316.046,345.751 314.826,346.053 313.790 C 346.355 312.753,346.741 311.905,346.912 311.905 C 347.083 311.905,347.222 311.388,347.222 310.757 C 347.222 310.102,347.478 309.511,347.817 309.380 C 348.162 309.248,348.413 308.655,348.413 307.972 C 348.413 307.324,348.591 306.683,348.810 306.548 C 349.028 306.413,349.206 305.788,349.206 305.159 C 349.206 304.530,349.385 303.905,349.603 303.770 C 349.821 303.635,350.000 302.642,350.000 301.564 C 350.000 300.485,350.179 299.603,350.397 299.603 C 350.621 299.603,350.794 298.479,350.794 297.024 C 350.794 295.569,350.967 294.444,351.190 294.444 C 351.443 294.444,351.587 291.212,351.587 285.539 C 351.587 280.031,351.436 276.541,351.190 276.389 C 350.972 276.254,350.794 274.815,350.794 273.191 C 350.794 271.487,350.626 270.238,350.397 270.238 C 350.179 270.238,350.000 269.445,350.000 268.476 C 350.000 267.507,349.821 266.603,349.603 266.468 C 349.385 266.333,349.206 265.530,349.206 264.683 C 349.206 263.835,349.028 263.032,348.810 262.897 C 348.016 262.406,348.391 260.851,349.416 260.385 C 349.968 260.133,350.522 259.658,350.649 259.329 C 350.775 259.000,351.316 258.730,351.852 258.730 C 352.399 258.730,352.717 258.557,352.579 258.333 C 352.372 257.998,352.845 257.854,353.800 257.963 C 353.926 257.977,354.348 257.620,354.739 257.169 C 355.130 256.718,355.626 256.349,355.842 256.349 C 356.057 256.349,356.715 255.903,357.304 255.357 C 357.893 254.812,358.678 254.362,359.048 254.359 C 359.628 254.354,359.639 254.299,359.127 253.968 C 358.635 253.650,358.672 253.583,359.337 253.578 C 359.780 253.574,360.400 253.214,360.714 252.778 C 361.029 252.341,361.424 251.984,361.593 251.984 C 361.916 251.984,363.393 250.796,364.921 249.306 C 365.425 248.814,366.024 248.413,366.252 248.413 C 366.480 248.413,366.667 248.257,366.667 248.067 C 366.667 247.877,367.560 246.800,368.651 245.673 C 369.742 244.547,370.635 243.442,370.635 243.218 C 370.635 242.994,370.825 242.928,371.058 243.072 C 371.519 243.357,372.586 242.175,372.606 241.356 C 372.613 241.076,373.244 240.222,374.008 239.458 C 374.772 238.694,375.397 237.941,375.398 237.784 C 375.398 237.628,375.934 236.875,376.587 236.111 C 377.241 235.347,377.776 234.499,377.777 234.226 C 377.777 233.953,377.913 233.730,378.078 233.730 C 378.243 233.730,378.634 233.150,378.946 232.440 C 379.259 231.731,379.704 230.934,379.936 230.669 C 381.159 229.268,381.349 228.935,381.349 228.191 C 381.349 227.746,381.528 227.381,381.746 227.381 C 381.964 227.381,382.143 227.111,382.143 226.780 C 382.143 226.450,382.321 225.825,382.540 225.391 C 382.758 224.958,383.115 224.248,383.333 223.815 C 383.552 223.381,383.730 222.667,383.730 222.228 C 383.730 221.788,383.919 221.429,384.150 221.429 C 384.382 221.429,384.468 221.262,384.342 221.059 C 384.217 220.856,384.296 220.578,384.517 220.441 C 384.739 220.303,384.921 219.845,384.921 219.421 C 384.921 218.997,385.099 218.651,385.317 218.651 C 385.536 218.651,385.714 218.151,385.714 217.540 C 385.714 216.929,385.875 216.259,386.070 216.052 C 386.266 215.844,386.539 214.871,386.675 213.889 C 386.812 212.907,387.121 210.942,387.362 209.524 C 387.602 208.105,387.799 203.105,387.799 198.413 C 387.799 193.720,387.602 188.720,387.362 187.302 C 387.121 185.883,386.812 183.962,386.674 183.033 C 386.537 182.104,386.264 181.246,386.069 181.125 C 385.874 181.004,385.714 180.291,385.714 179.540 C 385.714 178.789,385.536 178.175,385.317 178.175 C 385.099 178.175,384.921 177.853,384.921 177.460 C 384.921 177.067,384.706 176.532,384.444 176.270 C 384.183 176.008,384.138 175.791,384.345 175.788 C 384.553 175.784,384.500 175.640,384.228 175.468 C 383.956 175.295,383.695 174.686,383.648 174.114 C 383.601 173.541,383.421 173.160,383.249 173.266 C 383.077 173.373,382.937 173.013,382.937 172.467 C 382.937 171.922,382.758 171.365,382.540 171.230 C 382.321 171.095,382.143 170.638,382.143 170.215 C 382.143 169.791,381.964 169.444,381.746 169.444 C 381.528 169.444,381.349 169.075,381.349 168.622 C 381.349 168.170,381.126 167.552,380.853 167.247 C 379.780 166.051,379.498 165.627,378.949 164.385 C 378.635 163.676,378.243 163.095,378.078 163.095 C 377.913 163.095,377.777 162.872,377.777 162.599 C 377.776 162.326,377.241 161.478,376.587 160.714 C 375.934 159.950,375.398 159.160,375.398 158.957 C 375.397 158.754,374.807 158.040,374.086 157.369 C 373.366 156.699,372.540 155.570,372.253 154.861 C 371.965 154.152,371.558 153.571,371.349 153.571 C 370.932 153.571,368.513 151.140,367.267 149.470 C 366.833 148.889,366.253 148.413,365.977 148.413 C 365.702 148.413,365.476 148.234,365.476 148.016 C 365.476 147.798,365.179 147.619,364.815 147.619 C 364.451 147.619,364.258 147.515,364.385 147.388 C 364.728 147.044,363.194 145.635,362.477 145.635 C 362.136 145.635,361.968 145.456,362.103 145.238 C 362.238 145.020,362.109 144.841,361.817 144.841 C 361.525 144.841,361.029 144.484,360.714 144.048 C 360.400 143.611,359.780 143.251,359.337 143.248 C 358.672 143.243,358.635 143.175,359.127 142.857 C 359.639 142.526,359.628 142.472,359.048 142.466 C 358.678 142.463,357.893 142.014,357.304 141.468 C 356.715 140.923,356.031 140.476,355.784 140.476 C 355.536 140.476,355.077 140.119,354.762 139.683 C 354.447 139.246,353.772 138.889,353.262 138.889 C 352.744 138.889,352.443 138.713,352.579 138.492 C 352.717 138.269,352.399 138.095,351.852 138.095 C 351.316 138.095,350.775 137.826,350.649 137.497 C 350.522 137.167,349.968 136.692,349.416 136.441 C 348.629 136.082,348.413 135.693,348.413 134.635 C 348.413 133.837,348.575 133.387,348.810 133.532 C 349.049 133.680,349.206 133.147,349.206 132.190 C 349.206 131.317,349.385 130.492,349.603 130.357 C 349.821 130.222,350.000 129.319,350.000 128.350 C 350.000 127.380,350.179 126.587,350.397 126.587 C 350.628 126.587,350.794 125.265,350.794 123.413 C 350.794 121.561,350.959 120.238,351.190 120.238 C 351.443 120.238,351.587 116.997,351.587 111.310 C 351.587 105.622,351.443 102.381,351.190 102.381 C 350.967 102.381,350.794 101.257,350.794 99.802 C 350.794 98.347,350.621 97.222,350.397 97.222 C 350.179 97.222,350.000 96.340,350.000 95.262 C 350.000 94.183,349.821 93.190,349.603 93.056 C 349.385 92.921,349.206 92.321,349.206 91.723 C 349.206 91.124,349.042 90.465,348.840 90.258 C 348.639 90.051,348.415 89.345,348.344 88.690 C 348.269 87.999,348.006 87.542,347.718 87.599 C 347.397 87.663,347.222 87.209,347.222 86.310 C 347.222 85.546,347.083 84.921,346.912 84.921 C 346.741 84.921,346.367 84.126,346.081 83.155 C 345.794 82.185,345.399 81.336,345.204 81.270 C 345.008 81.205,344.808 80.660,344.758 80.060 C 344.709 79.459,344.557 78.968,344.420 78.968 C 344.284 78.968,343.836 78.343,343.425 77.579 C 343.013 76.815,342.539 76.190,342.370 76.190 C 342.201 76.190,342.063 75.833,342.063 75.397 C 342.063 74.960,341.885 74.603,341.667 74.603 C 341.448 74.603,341.270 74.235,341.270 73.786 C 341.270 73.337,341.091 73.079,340.873 73.214 C 340.655 73.349,340.476 73.168,340.476 72.813 C 340.476 72.080,339.558 71.032,338.917 71.032 C 338.683 71.032,338.492 70.675,338.492 70.238 C 338.492 69.802,338.313 69.444,338.095 69.444 C 337.877 69.444,337.698 69.260,337.698 69.034 C 337.698 68.479,334.830 65.647,334.406 65.784 C 334.220 65.844,334.190 65.696,334.338 65.456 C 334.487 65.215,334.260 64.694,333.835 64.298 C 333.409 63.902,332.717 63.140,332.297 62.606 C 331.507 61.602,329.789 60.482,329.266 60.630 C 329.102 60.676,328.968 60.518,328.968 60.278 C 328.968 59.873,327.839 58.709,325.829 57.044 C 325.368 56.662,324.731 56.349,324.414 56.349 C 324.097 56.349,323.638 55.977,323.395 55.522 C 323.151 55.066,322.858 54.788,322.743 54.902 C 322.628 55.017,322.163 54.765,321.708 54.341 C 321.254 53.918,320.635 53.571,320.333 53.571 C 320.032 53.571,319.515 53.302,319.186 52.973 C 318.856 52.643,318.378 52.493,318.123 52.639 C 317.868 52.785,317.792 52.758,317.954 52.579 C 318.116 52.400,317.848 51.971,317.359 51.626 C 316.404 50.953,316.305 50.919,315.056 50.843 C 314.607 50.816,314.349 50.615,314.484 50.397 C 314.619 50.179,314.372 50.000,313.936 50.000 C 313.499 50.000,313.032 49.821,312.897 49.603 C 312.762 49.385,312.216 49.206,311.683 49.206 C 311.150 49.206,310.714 49.067,310.714 48.896 C 310.714 48.725,310.223 48.545,309.623 48.496 C 309.023 48.446,308.472 48.229,308.399 48.012 C 308.327 47.796,307.666 47.619,306.931 47.619 C 306.196 47.619,305.452 47.377,305.278 47.082 C 304.918 46.473,303.446 46.047,300.694 45.757 C 299.658 45.648,298.810 45.397,298.810 45.200 C 298.810 45.003,297.560 44.841,296.032 44.841 C 294.504 44.841,293.254 44.669,293.254 44.459 C 293.254 43.947,275.108 43.949,274.791 44.461 C 274.662 44.670,273.332 44.841,271.835 44.841 C 270.338 44.841,269.054 45.010,268.981 45.217 C 268.909 45.423,268.001 45.635,266.964 45.688 C 265.928 45.740,265.079 45.928,265.079 46.106 C 265.079 46.283,264.476 46.429,263.739 46.429 C 263.002 46.429,262.176 46.696,261.905 47.024 C 261.152 47.931,259.524 47.795,259.524 46.825 C 259.524 46.389,259.345 46.032,259.127 46.032 C 258.909 46.032,258.730 45.764,258.730 45.437 C 258.730 45.109,258.552 44.841,258.333 44.841 C 258.115 44.841,257.937 44.484,257.937 44.048 C 257.937 43.611,257.790 43.254,257.610 43.254 C 257.163 43.254,255.159 40.142,255.159 39.449 C 255.159 39.141,254.980 38.889,254.762 38.889 C 254.544 38.889,254.365 38.621,254.365 38.294 C 254.365 37.966,254.187 37.698,253.968 37.698 C 253.750 37.698,253.571 37.450,253.571 37.146 C 253.571 36.842,253.292 36.486,252.951 36.355 C 252.610 36.224,252.442 35.937,252.578 35.717 C 252.713 35.497,252.623 35.317,252.376 35.317 C 251.715 35.317,250.794 34.280,250.794 33.537 C 250.794 33.181,250.660 32.971,250.496 33.070 C 250.332 33.169,249.968 33.001,249.687 32.696 C 249.348 32.330,249.325 32.143,249.618 32.143 C 249.862 32.143,249.467 31.655,248.741 31.058 C 248.015 30.462,247.285 29.760,247.119 29.499 C 246.597 28.678,243.726 25.794,243.430 25.794 C 243.078 25.794,241.271 23.719,241.270 23.313 C 241.270 23.150,240.902 23.016,240.453 23.016 C 240.003 23.016,239.746 22.837,239.881 22.619 C 240.016 22.401,239.892 22.222,239.607 22.221 C 239.321 22.221,238.462 21.676,237.698 21.012 C 236.935 20.347,235.818 19.505,235.218 19.141 C 234.618 18.777,234.127 18.340,234.127 18.168 C 234.127 17.997,233.770 17.857,233.333 17.857 C 232.897 17.857,232.540 17.690,232.540 17.486 C 232.540 17.282,231.925 16.893,231.175 16.621 C 230.424 16.350,229.843 15.936,229.885 15.703 C 229.926 15.469,229.559 15.299,229.067 15.325 C 228.576 15.351,228.175 15.231,228.175 15.057 C 228.175 14.673,225.882 13.492,225.137 13.492 C 224.844 13.492,224.603 13.357,224.603 13.192 C 224.603 12.894,221.840 11.905,221.010 11.905 C 220.772 11.905,220.310 11.637,219.983 11.310 C 219.656 10.982,219.054 10.714,218.646 10.714 C 218.238 10.714,217.794 10.536,217.659 10.317 C 217.524 10.099,216.888 9.921,216.246 9.921 C 215.605 9.921,215.079 9.777,215.079 9.601 C 215.079 9.426,214.325 9.238,213.403 9.183 C 212.481 9.129,211.633 8.946,211.518 8.777 C 211.403 8.608,210.238 8.426,208.929 8.371 C 207.619 8.317,206.488 8.108,206.415 7.906 C 206.241 7.424,189.165 7.425,188.671 7.908 M260.010 126.488 C 260.934 127.307,262.943 129.169,264.476 130.627 C 266.008 132.085,267.887 133.845,268.651 134.538 C 269.415 135.231,271.736 137.372,273.810 139.296 C 275.883 141.219,278.204 143.364,278.968 144.063 C 283.462 148.172,285.283 150.008,285.392 150.542 C 285.500 151.065,283.724 153.302,280.128 157.170 C 279.566 157.775,277.601 159.919,275.763 161.934 C 271.331 166.792,267.536 170.886,266.070 172.389 C 265.414 173.061,264.461 174.147,263.952 174.802 C 263.443 175.456,261.569 177.528,259.787 179.406 C 258.005 181.284,255.565 183.952,254.365 185.334 C 253.165 186.717,251.200 188.868,250.000 190.114 C 248.800 191.360,246.903 193.424,245.785 194.701 C 244.668 195.979,242.825 198.006,241.691 199.206 C 240.557 200.407,238.436 202.713,236.978 204.331 C 233.876 207.773,230.530 211.423,228.571 213.503 C 227.808 214.314,226.001 216.295,224.557 217.905 C 223.113 219.516,221.238 221.557,220.390 222.442 C 219.543 223.327,218.059 224.934,217.092 226.013 C 216.126 227.093,213.613 229.851,211.508 232.143 C 209.403 234.435,206.890 237.195,205.924 238.278 C 204.957 239.361,203.631 240.804,202.976 241.486 C 201.929 242.576,196.851 248.104,194.048 251.208 C 193.502 251.812,191.774 253.707,190.209 255.419 C 188.643 257.131,186.977 258.978,186.507 259.524 C 186.037 260.069,183.925 262.381,181.814 264.662 C 179.703 266.942,177.083 269.794,175.992 271.000 C 172.447 274.918,170.708 276.587,170.171 276.587 C 169.356 276.587,100.794 207.847,100.794 207.030 C 100.794 206.064,126.231 180.556,127.194 180.556 C 127.644 180.556,135.941 188.585,148.312 200.992 C 159.519 212.232,168.825 221.429,168.992 221.429 C 169.158 221.429,170.069 220.580,171.015 219.544 C 171.962 218.507,173.647 216.672,174.761 215.467 C 180.341 209.427,184.796 204.567,185.442 203.814 C 185.838 203.353,187.746 201.280,189.683 199.206 C 191.619 197.133,193.586 194.990,194.053 194.444 C 194.521 193.899,196.541 191.684,198.543 189.522 C 203.663 183.992,203.785 183.859,207.540 179.747 C 209.395 177.715,211.538 175.392,212.302 174.585 C 213.065 173.778,214.872 171.800,216.316 170.190 C 217.760 168.580,219.635 166.537,220.483 165.651 C 221.330 164.765,223.541 162.354,225.394 160.294 C 227.248 158.233,229.214 156.101,229.762 155.556 C 230.310 155.010,232.276 152.870,234.129 150.800 C 235.983 148.730,237.948 146.587,238.495 146.038 C 239.041 145.489,241.006 143.350,242.860 141.285 C 244.713 139.220,246.587 137.151,247.024 136.687 C 250.368 133.135,253.329 129.915,255.328 127.657 C 258.087 124.539,257.871 124.593,260.010 126.488 " stroke="none" fill="#1c9cf4" fill-rule="evenodd"></path><path id="path2" d="M256.548 126.587 C 255.920 127.242,255.549 127.778,255.722 127.778 C 255.895 127.778,256.388 127.331,256.817 126.786 C 257.861 125.459,258.041 125.501,260.434 127.641 L 262.500 129.489 260.446 127.443 C 258.039 125.045,258.028 125.042,256.548 126.587 M253.571 129.960 C 252.608 130.942,251.908 131.746,252.017 131.746 C 252.126 131.746,253.004 130.942,253.968 129.960 C 254.932 128.978,255.632 128.175,255.522 128.175 C 255.413 128.175,254.535 128.978,253.571 129.960 M264.484 131.349 C 265.559 132.440,266.528 133.333,266.637 133.333 C 266.746 133.333,265.956 132.440,264.881 131.349 C 263.806 130.258,262.837 129.365,262.728 129.365 C 262.619 129.365,263.409 130.258,264.484 131.349 M248.413 135.516 C 247.449 136.498,246.749 137.302,246.859 137.302 C 246.968 137.302,247.846 136.498,248.810 135.516 C 249.773 134.534,250.473 133.730,250.364 133.730 C 250.255 133.730,249.377 134.534,248.413 135.516 M270.570 136.991 C 276.309 142.345,277.402 143.235,273.039 139.001 C 270.517 136.553,268.334 134.544,268.189 134.537 C 268.044 134.530,269.116 135.634,270.570 136.991 M244.841 139.484 C 243.877 140.466,243.178 141.270,243.287 141.270 C 243.396 141.270,244.274 140.466,245.238 139.484 C 246.202 138.502,246.901 137.698,246.792 137.698 C 246.683 137.698,245.805 138.502,244.841 139.484 M239.683 145.040 C 238.719 146.022,238.019 146.825,238.128 146.825 C 238.238 146.825,239.115 146.022,240.079 145.040 C 241.043 144.058,241.743 143.254,241.633 143.254 C 241.524 143.254,240.646 144.058,239.683 145.040 M281.746 147.421 C 282.486 148.185,283.181 148.810,283.291 148.810 C 283.400 148.810,282.883 148.185,282.143 147.421 C 281.402 146.657,280.707 146.032,280.598 146.032 C 280.489 146.032,281.006 146.657,281.746 147.421 M235.935 149.181 L 234.370 150.992 236.114 149.319 C 237.073 148.399,237.777 147.584,237.679 147.508 C 237.581 147.432,236.796 148.185,235.935 149.181 M284.297 149.830 C 284.640 150.173,284.935 150.753,284.952 151.120 C 284.970 151.496,285.067 151.579,285.176 151.312 C 285.418 150.717,284.635 149.206,284.085 149.206 C 283.859 149.206,283.954 149.487,284.297 149.830 M230.952 154.563 C 229.988 155.546,229.289 156.349,229.398 156.349 C 229.507 156.349,230.385 155.546,231.349 154.563 C 232.313 153.581,233.012 152.778,232.903 152.778 C 232.794 152.778,231.916 153.581,230.952 154.563 M281.746 154.563 C 280.782 155.546,280.083 156.349,280.192 156.349 C 280.301 156.349,281.179 155.546,282.143 154.563 C 283.107 153.581,283.806 152.778,283.697 152.778 C 283.588 152.778,282.710 153.581,281.746 154.563 M227.205 158.705 L 225.639 160.516 227.384 158.843 C 228.343 157.923,229.047 157.108,228.949 157.032 C 228.850 156.956,228.065 157.709,227.205 158.705 M278.175 158.532 C 277.211 159.514,276.511 160.317,276.620 160.317 C 276.730 160.317,277.608 159.514,278.571 158.532 C 279.535 157.550,280.235 156.746,280.126 156.746 C 280.016 156.746,279.139 157.550,278.175 158.532 M222.222 164.087 C 221.258 165.069,220.559 165.873,220.668 165.873 C 220.777 165.873,221.655 165.069,222.619 164.087 C 223.583 163.105,224.282 162.302,224.173 162.302 C 224.064 162.302,223.186 163.105,222.222 164.087 M273.391 163.790 L 272.024 165.278 273.512 163.910 C 274.897 162.637,275.182 162.302,274.879 162.302 C 274.813 162.302,274.143 162.971,273.391 163.790 M269.444 168.056 C 268.481 169.038,267.781 169.841,267.890 169.841 C 267.999 169.841,268.877 169.038,269.841 168.056 C 270.805 167.073,271.505 166.270,271.395 166.270 C 271.286 166.270,270.408 167.073,269.444 168.056 M217.857 168.849 C 216.893 169.831,216.194 170.635,216.303 170.635 C 216.412 170.635,217.290 169.831,218.254 168.849 C 219.218 167.867,219.917 167.063,219.808 167.063 C 219.699 167.063,218.821 167.867,217.857 168.849 M265.079 172.817 C 264.115 173.800,263.416 174.603,263.525 174.603 C 263.634 174.603,264.512 173.800,265.476 172.817 C 266.440 171.835,267.139 171.032,267.030 171.032 C 266.921 171.032,266.043 171.835,265.079 172.817 M213.492 173.611 C 212.528 174.593,211.829 175.397,211.938 175.397 C 212.047 175.397,212.925 174.593,213.889 173.611 C 214.853 172.629,215.552 171.825,215.443 171.825 C 215.334 171.825,214.456 172.629,213.492 173.611 M209.343 178.157 L 207.377 180.357 209.523 178.288 C 210.703 177.150,211.588 176.160,211.489 176.088 C 211.390 176.016,210.425 176.947,209.343 178.157 M260.714 177.579 C 259.750 178.562,259.051 179.365,259.160 179.365 C 259.269 179.365,260.147 178.562,261.111 177.579 C 262.075 176.597,262.774 175.794,262.665 175.794 C 262.556 175.794,261.678 176.597,260.714 177.579 M204.973 182.880 L 203.002 185.119 205.271 182.950 C 206.519 181.757,207.540 180.730,207.540 180.668 C 207.540 180.207,206.658 180.967,204.973 182.880 M256.725 182.044 L 255.357 183.532 256.845 182.164 C 258.230 180.891,258.516 180.556,258.213 180.556 C 258.146 180.556,257.477 181.225,256.725 182.044 M113.501 193.840 C 102.818 204.527,100.710 206.815,101.161 207.233 C 101.603 207.645,101.647 207.638,101.396 207.197 C 101.178 206.815,104.879 202.862,113.934 193.804 C 121.000 186.736,126.692 180.952,126.583 180.952 C 126.474 180.952,120.587 186.752,113.501 193.840 M252.200 186.887 L 250.234 189.087 252.380 187.018 C 253.560 185.880,254.445 184.890,254.346 184.818 C 254.247 184.746,253.282 185.677,252.200 186.887 M202.169 185.906 C 201.958 186.209,200.114 188.254,198.071 190.451 C 196.029 192.647,194.442 194.444,194.545 194.444 C 194.873 194.444,202.887 185.691,202.715 185.520 C 202.625 185.429,202.379 185.603,202.169 185.906 M248.413 191.071 C 247.449 192.054,246.749 192.857,246.859 192.857 C 246.968 192.857,247.846 192.054,248.810 191.071 C 249.773 190.089,250.473 189.286,250.364 189.286 C 250.255 189.286,249.377 190.089,248.413 191.071 M243.834 196.131 L 241.865 198.214 243.948 196.245 C 245.884 194.415,246.214 194.048,245.918 194.048 C 245.855 194.048,244.917 194.985,243.834 196.131 M191.683 197.406 L 189.517 199.802 191.863 197.534 C 193.153 196.287,194.128 195.209,194.029 195.139 C 193.930 195.068,192.874 196.089,191.683 197.406 M239.866 200.496 L 237.897 202.579 239.980 200.610 C 241.916 198.780,242.245 198.413,241.949 198.413 C 241.887 198.413,240.949 199.350,239.866 200.496 M187.302 202.183 C 186.338 203.165,185.638 203.968,185.747 203.968 C 185.857 203.968,186.735 203.165,187.698 202.183 C 188.662 201.200,189.362 200.397,189.253 200.397 C 189.143 200.397,188.265 201.200,187.302 202.183 M235.334 205.343 L 233.168 207.738 235.514 205.471 C 236.804 204.224,237.779 203.146,237.680 203.075 C 237.581 203.005,236.525 204.025,235.334 205.343 M182.953 206.930 L 180.787 209.325 183.133 207.058 C 184.423 205.811,185.398 204.733,185.299 204.662 C 185.200 204.592,184.144 205.612,182.953 206.930 M231.160 209.911 C 230.090 210.998,229.293 211.943,229.389 212.012 C 229.485 212.081,230.439 211.193,231.508 210.037 C 233.967 207.381,233.735 207.297,231.160 209.911 M103.968 210.442 C 103.968 210.510,104.549 211.090,105.258 211.731 L 106.548 212.897 105.382 211.607 C 104.296 210.405,103.968 210.135,103.968 210.442 M178.380 211.897 C 177.532 212.766,176.915 213.537,177.010 213.609 C 177.105 213.682,177.875 212.971,178.722 212.029 C 180.656 209.880,180.434 209.794,178.380 211.897 M226.587 214.881 C 225.402 216.081,224.604 217.044,224.815 217.021 C 225.192 216.979,229.252 212.698,228.915 212.698 C 228.820 212.698,227.773 213.681,226.587 214.881 M174.623 216.051 L 172.857 218.056 174.802 216.185 C 175.872 215.156,176.667 214.253,176.568 214.180 C 176.470 214.106,175.594 214.948,174.623 216.051 M108.333 214.807 C 108.333 214.875,108.914 215.455,109.623 216.096 L 110.913 217.262 109.747 215.972 C 108.661 214.770,108.333 214.500,108.333 214.807 M222.031 219.834 C 221.182 220.703,220.566 221.473,220.661 221.546 C 220.756 221.618,221.526 220.907,222.373 219.966 C 224.306 217.816,224.085 217.731,222.031 219.834 M112.698 219.172 C 112.698 219.240,113.279 219.820,113.988 220.461 L 115.278 221.627 114.112 220.337 C 113.026 219.135,112.698 218.865,112.698 219.172 M170.145 220.908 C 169.094 221.959,169.065 221.964,168.252 221.228 C 167.584 220.624,167.473 220.604,167.672 221.123 C 168.136 222.332,169.149 222.304,170.405 221.048 C 171.069 220.384,171.522 219.841,171.412 219.841 C 171.302 219.841,170.732 220.322,170.145 220.908 M218.254 224.008 C 217.290 224.990,216.591 225.794,216.700 225.794 C 216.809 225.794,217.687 224.990,218.651 224.008 C 219.615 223.026,220.314 222.222,220.205 222.222 C 220.096 222.222,219.218 223.026,218.254 224.008 M118.452 225.000 C 119.305 225.873,120.092 226.587,120.201 226.587 C 120.310 226.587,119.702 225.873,118.849 225.000 C 117.997 224.127,117.210 223.413,117.101 223.413 C 116.992 223.413,117.600 224.127,118.452 225.000 M213.471 229.266 L 212.103 230.754 213.591 229.386 C 214.976 228.114,215.262 227.778,214.959 227.778 C 214.892 227.778,214.223 228.447,213.471 229.266 M122.222 228.696 C 122.222 228.764,122.803 229.344,123.512 229.985 L 124.802 231.151 123.636 229.861 C 122.550 228.659,122.222 228.389,122.222 228.696 M209.524 233.532 C 208.560 234.514,207.861 235.317,207.970 235.317 C 208.079 235.317,208.957 234.514,209.921 233.532 C 210.885 232.550,211.584 231.746,211.475 231.746 C 211.366 231.746,210.488 232.550,209.524 233.532 M126.587 233.061 C 126.587 233.129,127.168 233.709,127.877 234.350 L 129.167 235.516 128.001 234.226 C 126.915 233.024,126.587 232.754,126.587 233.061 M130.952 237.426 C 130.952 237.494,131.533 238.074,132.242 238.715 L 133.532 239.881 132.366 238.591 C 131.280 237.389,130.952 237.119,130.952 237.426 M204.741 238.790 L 203.373 240.278 204.861 238.910 C 206.246 237.637,206.532 237.302,206.229 237.302 C 206.162 237.302,205.493 237.971,204.741 238.790 M201.587 242.262 C 200.623 243.244,199.924 244.048,200.033 244.048 C 200.142 244.048,201.020 243.244,201.984 242.262 C 202.948 241.280,203.647 240.476,203.538 240.476 C 203.429 240.476,202.551 241.280,201.587 242.262 M136.706 243.254 C 137.559 244.127,138.346 244.841,138.455 244.841 C 138.564 244.841,137.956 244.127,137.103 243.254 C 136.251 242.381,135.464 241.667,135.355 241.667 C 135.246 241.667,135.854 242.381,136.706 243.254 M141.071 247.619 C 141.924 248.492,142.711 249.206,142.820 249.206 C 142.929 249.206,142.321 248.492,141.468 247.619 C 140.616 246.746,139.829 246.032,139.720 246.032 C 139.611 246.032,140.219 246.746,141.071 247.619 M196.010 248.313 L 194.643 249.802 196.131 248.434 C 197.516 247.161,197.802 246.825,197.498 246.825 C 197.432 246.825,196.763 247.495,196.010 248.313 M192.857 251.786 C 191.893 252.768,191.194 253.571,191.303 253.571 C 191.412 253.571,192.290 252.768,193.254 251.786 C 194.218 250.804,194.917 250.000,194.808 250.000 C 194.699 250.000,193.821 250.804,192.857 251.786 M145.437 251.984 C 146.289 252.857,147.076 253.571,147.185 253.571 C 147.294 253.571,146.686 252.857,145.833 251.984 C 144.981 251.111,144.194 250.397,144.085 250.397 C 143.976 250.397,144.584 251.111,145.437 251.984 M150.198 256.746 C 151.273 257.837,152.242 258.730,152.351 258.730 C 152.460 258.730,151.670 257.837,150.595 256.746 C 149.520 255.655,148.552 254.762,148.443 254.762 C 148.333 254.762,149.124 255.655,150.198 256.746 M185.495 259.821 C 183.777 261.731,182.786 262.937,183.293 262.500 C 184.388 261.559,189.048 256.349,188.796 256.349 C 188.700 256.349,187.214 257.912,185.495 259.821 M154.960 261.508 C 155.813 262.381,156.600 263.095,156.709 263.095 C 156.818 263.095,156.210 262.381,155.357 261.508 C 154.505 260.635,153.718 259.921,153.609 259.921 C 153.500 259.921,154.108 260.635,154.960 261.508 M159.325 265.873 C 160.178 266.746,160.965 267.460,161.074 267.460 C 161.183 267.460,160.575 266.746,159.722 265.873 C 158.870 265.000,158.083 264.286,157.974 264.286 C 157.865 264.286,158.473 265.000,159.325 265.873 M179.344 266.567 L 177.976 268.056 179.464 266.688 C 180.849 265.415,181.135 265.079,180.832 265.079 C 180.765 265.079,180.096 265.749,179.344 266.567 M163.690 270.238 C 164.543 271.111,165.330 271.825,165.439 271.825 C 165.548 271.825,164.940 271.111,164.087 270.238 C 163.235 269.365,162.448 268.651,162.339 268.651 C 162.230 268.651,162.838 269.365,163.690 270.238 M175.180 271.131 L 173.611 272.817 175.298 271.249 C 176.225 270.386,176.984 269.627,176.984 269.562 C 176.984 269.262,176.639 269.563,175.180 271.131 M168.056 274.603 C 168.908 275.476,169.695 276.190,169.804 276.190 C 169.913 276.190,169.305 275.476,168.452 274.603 C 167.600 273.730,166.813 273.016,166.704 273.016 C 166.595 273.016,167.203 273.730,168.056 274.603 M171.522 275.012 C 170.809 275.660,170.374 276.190,170.554 276.190 C 170.735 276.190,171.397 275.655,172.024 275.000 C 173.482 273.478,173.201 273.484,171.522 275.012 " stroke="none" fill="#68baf4" fill-rule="evenodd"></path><path id="path3" d="M256.372 127.282 C 255.673 128.100,254.088 129.843,252.849 131.155 C 251.609 132.468,249.626 134.610,248.440 135.917 C 247.255 137.224,245.290 139.365,244.073 140.675 C 242.856 141.984,239.987 145.109,237.696 147.619 C 235.406 150.129,233.442 152.272,233.333 152.381 C 233.224 152.490,231.261 154.633,228.971 157.143 C 226.680 159.653,223.811 162.778,222.594 164.087 C 221.377 165.397,219.412 167.537,218.226 168.843 C 217.041 170.149,215.164 172.202,214.055 173.406 C 212.946 174.610,209.013 178.899,205.314 182.937 C 201.616 186.974,194.579 194.653,189.677 200.000 C 184.774 205.347,180.046 210.515,179.171 211.484 C 178.296 212.453,176.310 214.596,174.760 216.246 C 173.209 217.896,171.360 219.916,170.651 220.734 C 169.942 221.553,169.239 222.222,169.089 222.222 C 168.939 222.222,159.540 212.937,148.203 201.587 C 136.865 190.238,127.407 180.952,127.185 180.952 C 126.054 180.952,101.109 206.645,101.520 207.386 C 101.749 207.798,117.294 223.482,136.066 242.240 L 170.196 276.346 172.102 274.380 C 174.162 272.256,174.802 271.561,184.325 261.111 C 187.806 257.292,191.552 253.191,192.648 251.998 C 193.745 250.804,195.634 248.751,196.845 247.434 C 200.603 243.348,202.879 240.864,207.942 235.317 C 210.633 232.371,214.467 228.175,216.464 225.992 C 218.460 223.810,223.189 218.631,226.973 214.484 C 230.757 210.337,234.763 205.962,235.876 204.762 C 236.988 203.562,239.773 200.526,242.064 198.016 C 244.356 195.506,246.319 193.363,246.429 193.254 C 246.538 193.145,248.323 191.181,250.397 188.889 C 252.470 186.597,254.434 184.454,254.762 184.127 C 255.089 183.800,257.053 181.657,259.124 179.365 C 261.196 177.073,263.887 174.127,265.104 172.817 C 266.321 171.508,268.287 169.367,269.472 168.060 C 270.657 166.753,272.625 164.610,273.844 163.298 C 275.063 161.986,277.883 158.910,280.110 156.462 C 282.338 154.014,284.331 151.905,284.540 151.776 C 285.678 151.072,285.333 150.656,277.976 143.860 C 274.921 141.037,270.278 136.739,267.659 134.308 C 257.198 124.597,258.154 125.192,256.372 127.282 M259.223 127.083 C 259.733 127.574,262.196 129.849,264.698 132.139 C 267.199 134.429,269.517 136.571,269.848 136.901 C 270.179 137.230,271.614 138.571,273.036 139.881 C 281.958 148.094,284.524 150.534,284.524 150.803 C 284.524 150.970,283.967 151.706,283.287 152.438 C 282.606 153.171,280.954 154.948,279.616 156.387 C 278.278 157.827,275.678 160.654,273.840 162.669 C 272.002 164.684,270.037 166.836,269.475 167.451 C 263.660 173.808,261.587 176.066,260.913 176.775 C 260.476 177.234,258.604 179.299,256.752 181.364 C 254.900 183.429,253.114 185.387,252.784 185.714 C 252.453 186.042,250.486 188.185,248.413 190.476 C 246.339 192.768,244.375 194.911,244.048 195.238 C 243.720 195.565,241.756 197.708,239.683 200.000 C 237.609 202.292,235.645 204.435,235.318 204.763 C 234.990 205.091,233.026 207.234,230.952 209.525 C 228.879 211.816,227.004 213.887,226.786 214.128 C 226.567 214.369,224.748 216.347,222.744 218.524 C 220.739 220.700,218.328 223.348,217.386 224.406 C 216.445 225.465,215.317 226.710,214.881 227.173 C 214.444 227.636,213.105 229.083,211.905 230.388 C 204.094 238.883,201.546 241.672,200.168 243.236 C 199.312 244.208,197.918 245.726,197.070 246.609 C 196.222 247.492,194.347 249.532,192.903 251.142 C 191.459 252.753,189.653 254.731,188.889 255.538 C 188.125 256.344,185.982 258.676,184.127 260.719 C 182.272 262.762,179.661 265.606,178.325 267.038 C 176.989 268.471,175.025 270.612,173.960 271.796 C 172.895 272.980,171.622 274.355,171.131 274.853 L 170.238 275.757 136.093 241.591 C 117.313 222.800,102.001 207.197,102.065 206.918 C 102.204 206.318,126.564 181.349,127.011 181.349 C 127.179 181.349,136.601 190.635,147.948 201.984 C 159.294 213.333,168.756 222.619,168.973 222.619 C 169.329 222.619,170.894 221.085,174.071 217.620 C 174.691 216.944,176.895 214.534,178.968 212.264 C 182.658 208.225,187.304 203.177,187.698 202.779 C 187.808 202.669,188.867 201.508,190.052 200.198 C 191.237 198.889,193.202 196.746,194.419 195.437 C 195.636 194.127,198.505 191.002,200.796 188.492 C 203.086 185.982,205.050 183.839,205.159 183.730 C 205.349 183.540,213.267 174.885,214.087 173.972 C 214.306 173.728,216.125 171.748,218.129 169.572 C 220.134 167.395,222.545 164.748,223.487 163.689 C 224.428 162.630,225.556 161.392,225.992 160.937 C 226.429 160.481,228.482 158.243,230.556 155.963 C 232.629 153.683,235.501 150.560,236.939 149.023 C 238.376 147.487,240.340 145.343,241.304 144.259 C 242.267 143.175,244.245 141.032,245.698 139.497 C 247.152 137.962,249.027 135.915,249.865 134.947 C 250.703 133.979,252.728 131.775,254.365 130.047 C 256.002 128.320,257.401 126.745,257.474 126.549 C 257.689 125.966,258.238 126.134,259.223 127.083 " stroke="none" fill="#abdbfc" fill-rule="evenodd"></path><path id="path4" d="M42.957 106.944 C 42.962 107.817,43.043 108.128,43.138 107.634 C 43.233 107.141,43.229 106.426,43.130 106.047 C 43.030 105.668,42.953 106.071,42.957 106.944 M42.965 115.476 C 42.965 116.458,43.043 116.860,43.137 116.369 C 43.232 115.878,43.232 115.074,43.137 114.583 C 43.043 114.092,42.965 114.494,42.965 115.476 M256.907 125.893 C 256.152 126.785,256.152 126.785,256.976 126.091 C 258.108 125.138,258.107 125.138,260.540 127.439 C 261.727 128.561,262.698 129.352,262.698 129.196 C 262.698 128.885,262.503 128.688,260.014 126.488 C 258.043 124.745,257.901 124.718,256.907 125.893 M253.791 129.295 L 252.622 130.754 254.089 129.386 C 255.605 127.973,255.764 127.758,255.258 127.806 C 255.094 127.822,254.434 128.492,253.791 129.295 M263.095 129.489 C 263.095 129.558,263.676 130.138,264.385 130.779 L 265.675 131.944 264.509 130.655 C 263.423 129.453,263.095 129.183,263.095 129.489 M248.788 134.821 L 247.421 136.310 248.909 134.942 C 250.294 133.669,250.579 133.333,250.276 133.333 C 250.210 133.333,249.540 134.003,248.788 134.821 M271.015 137.004 C 271.988 138.041,272.836 138.889,272.900 138.889 C 273.198 138.889,272.883 138.533,271.131 136.888 L 269.246 135.119 271.015 137.004 M244.690 139.125 C 242.696 141.390,242.999 141.369,245.238 139.087 C 246.202 138.105,246.820 137.318,246.610 137.339 C 246.401 137.360,245.537 138.163,244.690 139.125 M277.360 142.960 C 278.112 143.776,278.883 144.444,279.074 144.444 C 279.438 144.444,279.107 144.101,277.165 142.464 C 276.152 141.611,276.179 141.679,277.360 142.960 M281.570 146.925 C 282.807 148.070,283.982 149.069,284.180 149.143 C 284.378 149.217,283.493 148.280,282.214 147.060 C 280.935 145.839,279.761 144.841,279.605 144.841 C 279.449 144.841,280.333 145.779,281.570 146.925 M235.693 149.107 L 234.325 150.595 235.813 149.228 C 237.199 147.955,237.484 147.619,237.181 147.619 C 237.115 147.619,236.445 148.289,235.693 149.107 M232.121 153.075 L 230.754 154.563 232.242 153.196 C 233.627 151.923,233.913 151.587,233.610 151.587 C 233.543 151.587,232.874 152.257,232.121 153.075 M281.349 155.357 C 280.609 156.121,280.172 156.733,280.379 156.717 C 280.736 156.690,283.188 153.968,282.855 153.968 C 282.767 153.968,282.090 154.593,281.349 155.357 M226.587 158.929 C 225.623 159.911,225.006 160.697,225.215 160.677 C 225.584 160.641,228.843 157.143,228.507 157.143 C 228.415 157.143,227.551 157.946,226.587 158.929 M277.756 159.425 L 276.389 160.913 277.877 159.545 C 279.262 158.272,279.548 157.937,279.245 157.937 C 279.178 157.937,278.509 158.606,277.756 159.425 M272.619 164.881 C 271.879 165.645,271.442 166.257,271.648 166.241 C 272.006 166.214,274.458 163.492,274.125 163.492 C 274.037 163.492,273.359 164.117,272.619 164.881 M217.857 168.452 C 216.893 169.435,216.194 170.238,216.303 170.238 C 216.412 170.238,217.290 169.435,218.254 168.452 C 219.218 167.470,219.917 166.667,219.808 166.667 C 219.699 166.667,218.821 167.470,217.857 168.452 M269.444 168.452 C 268.481 169.435,267.781 170.238,267.890 170.238 C 267.999 170.238,268.877 169.435,269.841 168.452 C 270.805 167.470,271.505 166.667,271.395 166.667 C 271.286 166.667,270.408 167.470,269.444 168.452 M214.505 172.152 L 213.336 173.611 214.803 172.244 C 216.319 170.830,216.478 170.615,215.972 170.664 C 215.809 170.679,215.148 171.349,214.505 172.152 M261.797 176.758 C 260.329 178.379,259.127 179.794,259.127 179.903 C 259.127 180.097,262.599 176.434,264.055 174.702 C 265.775 172.657,264.271 174.026,261.797 176.758 M209.127 177.976 C 208.163 178.958,207.464 179.762,207.573 179.762 C 207.682 179.762,208.560 178.958,209.524 177.976 C 210.488 176.994,211.187 176.190,211.078 176.190 C 210.969 176.190,210.091 176.994,209.127 177.976 M129.058 182.282 C 129.991 183.231,130.832 183.942,130.927 183.862 C 131.156 183.668,128.107 180.556,127.688 180.556 C 127.509 180.556,128.126 181.332,129.058 182.282 M205.137 182.440 L 203.770 183.929 205.258 182.561 C 206.643 181.288,206.928 180.952,206.625 180.952 C 206.559 180.952,205.890 181.622,205.137 182.440 M255.357 183.730 C 254.730 184.385,254.384 184.911,254.588 184.899 C 254.938 184.878,256.984 182.540,256.652 182.540 C 256.567 182.540,255.984 183.075,255.357 183.730 M122.005 185.020 L 120.437 186.706 122.123 185.138 C 123.691 183.679,123.992 183.333,123.692 183.333 C 123.627 183.333,122.868 184.092,122.005 185.020 M131.957 184.900 C 133.266 186.529,135.317 188.538,135.317 188.193 C 135.317 188.014,134.385 186.981,133.246 185.898 C 132.107 184.815,131.527 184.366,131.957 184.900 M252.352 187.202 C 251.370 188.239,250.228 189.534,249.813 190.079 C 249.398 190.625,249.657 190.446,250.388 189.683 C 253.597 186.332,254.514 185.317,254.331 185.317 C 254.224 185.317,253.334 186.166,252.352 187.202 M200.397 187.500 C 199.433 188.482,198.734 189.286,198.843 189.286 C 198.952 189.286,199.830 188.482,200.794 187.500 C 201.758 186.518,202.457 185.714,202.348 185.714 C 202.239 185.714,201.361 186.518,200.397 187.500 M118.031 188.988 L 116.865 190.278 118.155 189.112 C 119.357 188.026,119.627 187.698,119.320 187.698 C 119.252 187.698,118.672 188.279,118.031 188.988 M136.318 189.273 C 137.594 190.866,138.122 191.375,138.307 191.191 C 138.402 191.095,137.817 190.404,137.006 189.655 C 136.156 188.869,135.865 188.708,136.318 189.273 M195.881 192.299 C 193.886 194.565,194.189 194.544,196.429 192.262 C 197.392 191.280,198.010 190.493,197.801 190.514 C 197.592 190.534,196.728 191.338,195.881 192.299 M246.827 193.054 C 246.315 193.599,245.971 194.111,246.063 194.192 C 246.155 194.273,246.646 193.828,247.153 193.202 C 248.289 191.801,248.089 191.710,246.827 193.054 M112.872 194.147 L 111.706 195.437 112.996 194.271 C 113.705 193.630,114.286 193.050,114.286 192.981 C 114.286 192.675,113.958 192.945,112.872 194.147 M141.549 194.630 C 141.941 195.169,142.427 195.616,142.629 195.622 C 142.830 195.629,142.576 195.188,142.063 194.643 C 140.874 193.376,140.632 193.371,141.549 194.630 M243.651 196.627 C 242.687 197.609,242.069 198.396,242.278 198.375 C 242.648 198.339,245.906 194.841,245.571 194.841 C 245.479 194.841,244.615 195.645,243.651 196.627 M143.651 196.545 C 143.651 196.900,146.893 200.065,147.073 199.885 C 147.146 199.812,146.406 198.967,145.428 198.008 C 144.451 197.048,143.651 196.390,143.651 196.545 M191.046 197.718 L 189.881 199.008 191.171 197.842 C 191.880 197.201,192.460 196.621,192.460 196.553 C 192.460 196.246,192.133 196.516,191.046 197.718 M188.925 199.941 C 188.617 200.301,187.728 201.310,186.948 202.183 C 185.993 203.252,186.234 203.095,187.687 201.701 C 188.873 200.563,189.762 199.554,189.664 199.459 C 189.565 199.364,189.232 199.581,188.925 199.941 M148.016 201.045 C 148.016 201.330,149.616 202.778,149.931 202.778 C 150.045 202.778,149.719 202.331,149.206 201.786 C 148.241 200.758,148.016 200.618,148.016 201.045 M238.666 202.083 L 237.500 203.373 238.790 202.208 C 239.499 201.566,240.079 200.986,240.079 200.918 C 240.079 200.611,239.752 200.881,238.666 202.083 M182.937 206.548 C 181.973 207.530,181.273 208.333,181.382 208.333 C 181.492 208.333,182.369 207.530,183.333 206.548 C 184.297 205.565,184.997 204.762,184.887 204.762 C 184.778 204.762,183.900 205.565,182.937 206.548 M234.524 206.548 C 233.783 207.312,233.347 207.924,233.553 207.908 C 233.911 207.881,236.363 205.159,236.030 205.159 C 235.942 205.159,235.264 205.784,234.524 206.548 M100.794 207.473 C 100.794 208.166,169.790 276.668,170.288 276.470 C 170.734 276.293,170.729 276.247,170.262 276.222 C 169.947 276.205,154.188 260.669,135.242 241.698 C 116.295 222.727,100.794 207.326,100.794 207.473 M231.349 210.119 C 230.385 211.101,229.686 211.905,229.795 211.905 C 229.904 211.905,230.782 211.101,231.746 210.119 C 232.710 209.137,233.409 208.333,233.300 208.333 C 233.191 208.333,232.313 209.137,231.349 210.119 M178.770 211.015 C 176.005 214.043,176.026 214.419,178.797 211.513 C 180.052 210.197,181.006 209.058,180.916 208.982 C 180.827 208.905,179.861 209.820,178.770 211.015 M157.552 210.615 C 157.559 210.779,158.050 211.256,158.643 211.674 L 159.722 212.436 158.760 211.377 C 157.749 210.264,157.532 210.126,157.552 210.615 M174.215 216.063 C 173.255 217.041,172.548 217.898,172.644 217.969 C 172.739 218.040,173.602 217.240,174.560 216.192 C 176.757 213.789,176.529 213.705,174.215 216.063 M161.905 214.816 C 161.905 215.201,164.323 217.555,164.518 217.360 C 164.602 217.276,164.048 216.604,163.288 215.867 C 162.527 215.130,161.905 214.657,161.905 214.816 M222.468 219.680 C 220.473 221.945,220.776 221.925,223.016 219.643 C 223.980 218.661,224.597 217.874,224.388 217.895 C 224.179 217.915,223.315 218.719,222.468 219.680 M170.569 219.989 L 169.114 221.627 168.089 220.665 C 167.525 220.136,167.069 219.868,167.076 220.070 C 167.083 220.271,167.548 220.772,168.111 221.182 L 169.133 221.927 170.757 220.302 C 171.651 219.409,172.301 218.605,172.203 218.515 C 172.104 218.425,171.369 219.089,170.569 219.989 M213.738 229.204 C 211.743 231.469,212.046 231.449,214.286 229.167 C 215.250 228.185,215.867 227.398,215.658 227.418 C 215.449 227.439,214.585 228.242,213.738 229.204 M209.106 234.425 L 207.738 235.913 209.226 234.545 C 210.611 233.272,210.897 232.937,210.594 232.937 C 210.527 232.937,209.858 233.606,209.106 234.425 M205.008 238.728 C 204.161 239.689,203.625 240.459,203.817 240.439 C 204.010 240.418,204.860 239.615,205.706 238.653 C 206.553 237.692,207.089 236.922,206.897 236.942 C 206.705 236.963,205.855 237.766,205.008 238.728 M200.403 243.843 C 199.665 244.604,199.139 245.287,199.233 245.362 C 199.328 245.436,200.006 244.814,200.740 243.979 C 202.410 242.081,202.194 241.995,200.403 243.843 M196.010 248.710 L 194.643 250.198 196.131 248.831 C 197.516 247.558,197.802 247.222,197.498 247.222 C 197.432 247.222,196.763 247.892,196.010 248.710 M191.745 253.293 C 191.047 254.012,190.476 254.739,190.476 254.908 C 190.476 255.215,190.613 255.085,192.430 253.057 C 193.789 251.542,193.269 251.720,191.745 253.293 M187.504 257.932 C 186.879 258.585,186.444 259.182,186.537 259.260 C 186.630 259.337,187.215 258.803,187.837 258.073 C 189.240 256.425,189.032 256.337,187.504 257.932 M184.135 261.698 C 183.176 262.676,182.469 263.533,182.564 263.604 C 182.660 263.674,183.522 262.875,184.481 261.826 C 186.677 259.424,186.450 259.340,184.135 261.698 M175.435 271.077 C 174.474 272.149,173.760 273.076,173.848 273.138 C 173.936 273.199,174.883 272.304,175.953 271.148 C 177.022 269.993,177.737 269.066,177.540 269.088 C 177.343 269.110,176.396 270.005,175.435 271.077 M42.965 281.349 C 42.965 282.331,43.043 282.733,43.137 282.242 C 43.232 281.751,43.232 280.947,43.137 280.456 C 43.043 279.965,42.965 280.367,42.965 281.349 M42.949 289.683 C 42.949 290.446,43.031 290.759,43.131 290.377 C 43.230 289.995,43.230 289.370,43.131 288.988 C 43.031 288.606,42.949 288.919,42.949 289.683 " stroke="none" fill="#4eb4f4" fill-rule="evenodd"></path></g></svg>